<?xml version="1.0" standalone="no"?>
<!DOCTYPE svg PUBLIC "-//W3C//DTD SVG 20010904//EN"
 "http://www.w3.org/TR/2001/REC-SVG-20010904/DTD/svg10.dtd">
<svg version="1.0" xmlns="http://www.w3.org/2000/svg"
 width="1200.000000pt" height="1200.000000pt" viewBox="0 0 1200.000000 1200.000000"
 preserveAspectRatio="xMidYMid meet">
<metadata>
Created by potrace 1.16, written by Peter Selinger 2001-2019
</metadata>
<g transform="translate(0.000000,1200.000000) scale(0.100000,-0.100000)"
fill="#000000" stroke="none">
<path d="M5850 10794 c-1171 -40 -2265 -492 -3125 -1291 -1319 -1226 -1834
-3104 -1330 -4849 287 -991 906 -1878 1748 -2506 708 -528 1565 -851 2457
-927 691 -59 1443 44 2072 283 768 292 1420 744 1949 1351 658 755 1063 1705
1153 2702 161 1769 -644 3450 -2124 4438 -664 443 -1401 704 -2205 779 -171
16 -440 25 -595 20z m675 -138 c692 -83 1337 -304 1910 -654 355 -217 731
-524 998 -817 651 -711 1066 -1577 1202 -2507 43 -296 58 -740 35 -1039 -62
-788 -326 -1559 -759 -2214 -458 -694 -1079 -1243 -1829 -1620 -475 -238
-1016 -398 -1563 -461 -286 -33 -803 -30 -1094 7 -302 37 -676 124 -959 223
-1053 369 -1918 1075 -2491 2031 -99 164 -267 507 -338 690 -168 431 -271 878
-307 1339 -13 166 -13 577 0 731 35 404 104 748 225 1110 401 1204 1263 2185
2407 2739 498 242 1035 393 1603 451 194 19 766 14 960 -9z"/>
<path d="M5775 10550 c-694 -30 -1437 -248 -2045 -600 -802 -466 -1439 -1150
-1836 -1975 -80 -167 -186 -428 -234 -580 -320 -1008 -281 -2122 107 -3080
242 -598 573 -1097 1024 -1546 579 -576 1284 -977 2079 -1183 371 -96 880
-156 1195 -141 294 13 347 17 461 31 930 111 1774 486 2474 1097 890 778 1429
1844 1541 3047 17 184 14 603 -6 805 -123 1269 -747 2400 -1755 3185 -600 467
-1364 790 -2130 899 -272 39 -577 53 -875 41z m630 -119 c432 -42 841 -140
1244 -297 163 -64 491 -227 650 -324 1007 -610 1739 -1604 2019 -2741 468
-1898 -346 -3863 -2023 -4879 -1005 -610 -2231 -794 -3375 -505 -333 83 -612
187 -915 340 -441 222 -802 482 -1145 825 -982 982 -1447 2335 -1274 3710 160
1275 871 2425 1939 3135 208 138 342 216 539 311 531 256 1093 401 1696 438
103 6 535 -3 645 -13z"/>
<path d="M5863 9361 c-357 -57 -647 -325 -735 -678 -30 -121 -30 -313 1 -428
24 -89 83 -220 133 -293 140 -206 379 -349 639 -381 70 -9 259 2 284 17 10 5
2 35 -32 119 l-45 112 -31 -47 c-61 -90 -116 -76 -180 45 -36 69 -74 179 -66
187 3 3 48 6 102 7 53 1 97 2 97 4 0 1 -13 33 -28 71 l-29 69 -84 3 c-46 2
-87 6 -91 10 -18 18 -30 293 -18 439 6 81 13 149 15 152 10 9 408 5 411 -4 2
-5 7 -56 12 -112 7 -99 7 -103 -13 -104 -11 -1 -92 -1 -179 0 -87 0 -157 -2
-154 -4 3 -3 110 -37 239 -75 l234 -70 204 0 203 1 -5 -23 c-3 -13 -9 -39 -12
-59 l-7 -35 70 -21 70 -20 14 66 c20 100 15 269 -11 375 -76 314 -313 560
-628 651 -97 29 -283 41 -380 26z m201 -183 c34 -39 90 -164 103 -229 l6 -29
-172 0 c-136 0 -171 3 -171 13 0 26 42 142 67 187 63 111 108 127 167 58z
m-304 -3 c0 -4 -8 -20 -17 -38 -9 -18 -28 -72 -43 -122 l-26 -90 -139 -3 -138
-3 35 43 c52 64 143 134 232 179 76 38 96 45 96 34z m591 -42 c78 -40 168
-111 217 -171 l35 -43 -139 3 -138 3 -21 75 c-12 41 -31 97 -43 124 -12 27
-22 51 -22 53 0 8 45 -9 111 -44z m-706 -369 c-1 -5 -4 -55 -9 -111 -7 -91
-10 -103 -27 -104 -10 0 -84 -1 -164 -1 -216 0 -195 -4 -188 40 3 20 15 68 27
107 17 55 26 70 44 75 39 9 317 4 317 -6z m1042 3 c10 -6 46 -124 57 -184 4
-25 2 -33 -9 -34 -8 0 -89 -1 -180 -1 -91 0 -169 1 -174 1 -4 1 -11 44 -15 97
-4 53 -10 102 -12 109 -4 8 3 15 18 17 41 5 304 2 315 -5z m-1052 -469 c4 -55
9 -107 12 -115 4 -10 -27 -13 -165 -13 l-170 0 -16 41 c-13 33 -46 165 -46
185 0 2 85 4 189 4 l188 0 8 -102z m21 -277 c17 -1 23 -9 29 -38 4 -21 22 -78
40 -128 19 -49 33 -91 31 -92 -2 -2 -44 17 -95 42 -68 34 -112 66 -173 124
-45 42 -79 81 -76 87 5 7 109 9 244 5z"/>
<path d="M6083 8307 c74 -187 290 -723 292 -725 1 -2 33 40 69 92 37 53 69 96
72 96 3 0 56 -43 117 -95 61 -53 114 -94 118 -93 12 4 139 148 139 157 0 4
-54 52 -120 107 l-120 99 58 51 c31 28 70 62 86 76 l29 24 -324 97 c-178 54
-346 104 -373 112 -36 11 -47 12 -43 2z"/>
<path d="M8084 6666 c-115 -29 -191 -104 -201 -199 -15 -131 84 -235 277 -291
112 -33 160 -75 160 -142 0 -69 -70 -111 -167 -101 -73 8 -119 43 -135 103
l-12 45 -76 -3 -75 -3 3 -35 c8 -89 80 -172 181 -211 74 -29 203 -31 280 -5
138 47 198 188 135 314 -41 82 -103 124 -262 177 -106 35 -152 72 -152 124 0
66 55 111 135 111 73 0 145 -56 145 -112 0 -16 10 -18 80 -18 57 0 80 4 80 13
0 31 -25 95 -51 134 -59 85 -220 131 -345 99z"/>
<path d="M3550 6240 l0 -430 85 0 85 0 2 272 3 272 115 -270 116 -269 82 -3
82 -3 0 431 0 430 -80 0 -80 0 0 -277 c0 -152 -4 -273 -8 -267 -5 5 -60 129
-123 277 l-114 267 -82 0 -83 0 0 -430z"/>
<path d="M5010 6240 l0 -430 285 0 285 0 0 65 0 65 -205 0 -205 0 0 125 0 125
175 0 175 0 0 65 0 65 -175 0 -175 0 0 110 0 110 205 0 205 0 0 65 0 65 -285
0 -285 0 0 -430z"/>
<path d="M6450 6241 l0 -431 80 0 80 0 0 159 0 158 113 5 c84 3 123 10 157 25
99 44 149 114 158 219 9 118 -40 204 -146 256 l-67 33 -187 4 -188 3 0 -431z
m357 282 c61 -29 88 -117 59 -188 -24 -56 -66 -75 -168 -75 l-88 0 0 140 0
140 81 0 c55 0 92 -5 116 -17z"/>
<path d="M4502 6000 c-59 -36 -70 -110 -23 -162 26 -29 35 -33 81 -33 46 0 55
4 81 33 50 56 36 133 -31 167 -39 20 -69 19 -108 -5z"/>
<path d="M5942 6000 c-59 -36 -70 -110 -23 -162 26 -29 35 -33 81 -33 46 0 55
4 81 33 50 56 36 133 -31 167 -39 20 -69 19 -108 -5z"/>
<path d="M7382 6000 c-59 -36 -70 -110 -23 -162 26 -29 35 -33 81 -33 46 0 55
4 81 33 50 56 36 133 -31 167 -39 20 -69 19 -108 -5z"/>
<path d="M3000 4140 l0 -60 3000 0 3000 0 0 60 0 60 -3000 0 -3000 0 0 -60z"/>
</g>
</svg>
