<?xml version="1.0" standalone="no"?>
<!DOCTYPE svg PUBLIC "-//W3C//DTD SVG 20010904//EN"
 "http://www.w3.org/TR/2001/REC-SVG-20010904/DTD/svg10.dtd">
<svg version="1.0" xmlns="http://www.w3.org/2000/svg"
 width="1500.000000pt" height="500.000000pt" viewBox="0 0 1500.000000 500.000000"
 preserveAspectRatio="xMidYMid meet">
<metadata>
Created by potrace 1.16, written by Peter Selinger 2001-2019
</metadata>
<g transform="translate(0.000000,500.000000) scale(0.100000,-0.100000)"
fill="#000000" stroke="none">
<path d="M2014 4924 c-62 -136 -161 -395 -218 -573 -316 -972 -376 -2027 -175
-3036 84 -421 232 -888 392 -1237 l36 -78 75 0 c42 0 76 2 76 4 0 2 -21 50
-46 107 -260 583 -422 1207 -486 1869 -18 182 -18 869 0 1050 45 456 134 884
272 1300 68 205 169 467 220 570 51 103 53 100 -35 100 l-76 0 -35 -76z"/>
<path d="M2371 4983 c-30 -57 -122 -270 -176 -408 -283 -721 -418 -1516 -386
-2280 13 -297 32 -491 77 -755 79 -472 235 -979 432 -1410 l58 -125 77 -3 78
-3 -31 61 c-54 108 -165 370 -222 525 -162 441 -271 923 -318 1415 -18 183
-24 674 -11 855 36 497 114 906 257 1349 78 242 151 424 288 719 l35 77 -74 0
c-61 0 -76 -3 -84 -17z"/>
<path d="M6550 4993 c0 -16 117 -157 180 -217 210 -197 480 -306 763 -306 97
0 236 16 249 28 3 4 -19 71 -51 149 l-57 143 -19 -36 c-24 -45 -89 -104 -115
-104 -56 0 -152 144 -195 293 l-16 57 -95 0 c-52 0 -94 -2 -94 -4 0 -17 54
-185 75 -231 14 -32 25 -59 25 -61 0 -8 -90 30 -147 62 -75 42 -194 135 -245
192 l-38 42 -110 0 c-60 0 -110 -3 -110 -7z"/>
<path d="M7762 4991 c43 -116 205 -511 209 -511 4 0 44 54 90 120 70 101 85
117 98 107 8 -7 73 -63 145 -125 l131 -113 73 78 c40 43 82 90 92 104 l20 26
-137 114 c-75 63 -144 120 -152 126 -14 11 -11 17 21 48 l38 35 -316 0 c-182
0 -314 -4 -312 -9z"/>
<path d="M12506 4923 c315 -679 465 -1225 536 -1958 19 -198 16 -801 -5 -995
-57 -516 -150 -927 -314 -1380 -59 -164 -175 -437 -239 -562 l-15 -28 76 0 76
0 41 87 c387 838 565 1735 527 2652 -31 754 -209 1484 -528 2174 l-40 87 -75
0 -75 0 35 -77z"/>
<path d="M12805 4978 c4 -13 18 -43 30 -68 37 -74 129 -304 188 -470 152 -428
250 -874 302 -1365 22 -209 31 -728 16 -951 -48 -701 -209 -1359 -487 -1991
-30 -67 -54 -124 -54 -127 0 -3 34 -6 75 -6 87 0 70 -21 160 196 228 547 367
1097 430 1697 18 174 36 584 30 677 -2 36 -7 137 -10 225 -23 668 -198 1435
-473 2068 l-57 132 -78 3 c-78 3 -79 3 -72 -20z"/>
<path d="M10114 3325 c-154 -33 -250 -126 -261 -252 -14 -161 87 -272 317
-347 184 -59 230 -97 230 -186 0 -129 -237 -178 -336 -68 -30 32 -44 62 -44
92 l0 26 -100 0 -100 0 0 -30 c0 -53 39 -137 86 -185 139 -144 436 -164 597
-41 48 36 88 116 94 184 15 162 -92 283 -310 353 -189 60 -237 96 -237 176 0
38 6 51 33 78 33 33 88 55 137 55 82 0 163 -57 175 -123 l7 -37 100 0 100 0
-7 43 c-24 139 -135 242 -292 267 -75 13 -114 12 -189 -5z"/>
<path d="M4440 2795 l0 -536 103 3 102 3 0 338 c0 185 2 337 5 337 3 0 70
-153 150 -340 l145 -340 103 0 102 0 0 535 0 535 -103 0 -104 0 0 -47 c-1 -27
-2 -181 -2 -343 l-2 -295 -147 343 -147 342 -102 0 -103 0 0 -535z"/>
<path d="M6260 2795 l0 -535 355 0 355 0 0 80 0 80 -255 0 -255 0 0 155 0 155
220 0 220 0 0 80 0 80 -220 0 -220 0 0 140 0 140 255 0 255 0 0 80 0 80 -355
0 -355 0 0 -535z"/>
<path d="M8060 2795 l0 -535 100 0 100 0 0 199 0 199 143 4 c130 3 147 6 205
32 120 55 192 165 192 295 0 129 -62 234 -170 289 -86 43 -148 52 -377 52
l-193 0 0 -535z m419 365 c110 -31 157 -193 83 -281 -40 -48 -77 -59 -197 -59
l-105 0 0 175 0 175 93 0 c50 0 108 -4 126 -10z"/>
<path d="M5633 2499 c-97 -48 -96 -186 1 -230 52 -23 80 -23 132 0 44 20 74
67 74 116 0 49 -30 96 -74 116 -53 24 -82 24 -133 -2z"/>
<path d="M7433 2499 c-97 -48 -96 -186 1 -230 52 -23 80 -23 132 0 44 20 74
67 74 116 0 49 -30 96 -74 116 -53 24 -82 24 -133 -2z"/>
<path d="M9233 2499 c-97 -48 -96 -186 1 -230 52 -23 80 -23 132 0 44 20 74
67 74 116 0 49 -30 96 -74 116 -53 24 -82 24 -133 -2z"/>
<path d="M3750 175 l0 -75 3750 0 3750 0 0 75 0 75 -3750 0 -3750 0 0 -75z"/>
</g>
</svg>
