<?xml version="1.0" standalone="no"?>
<!DOCTYPE svg PUBLIC "-//W3C//DTD SVG 20010904//EN"
 "http://www.w3.org/TR/2001/REC-SVG-20010904/DTD/svg10.dtd">
<svg version="1.0" xmlns="http://www.w3.org/2000/svg"
 width="800.000000pt" height="800.000000pt" viewBox="0 0 800.000000 800.000000"
 preserveAspectRatio="xMidYMid meet">
<metadata>
Created by potrace 1.16, written by Peter Selinger 2001-2019
</metadata>
<g transform="translate(0.000000,800.000000) scale(0.100000,-0.100000)"
fill="#000000" stroke="none">
<path d="M3820 7189 c-452 -21 -927 -154 -1321 -369 -319 -174 -542 -343 -790
-598 -758 -777 -1063 -1864 -824 -2937 34 -151 117 -403 184 -560 241 -558
660 -1055 1181 -1397 227 -150 526 -292 792 -376 541 -173 1181 -191 1733 -51
595 151 1112 454 1540 900 524 547 839 1279 874 2034 42 916 -277 1753 -918
2408 -508 521 -1204 858 -1920 932 -183 18 -345 23 -531 14z m630 -98 c207
-33 349 -67 540 -131 472 -156 864 -401 1225 -764 479 -482 772 -1067 876
-1751 27 -171 36 -541 20 -726 -67 -729 -376 -1392 -896 -1915 -264 -267 -492
-432 -828 -600 -294 -148 -588 -240 -937 -295 -173 -27 -530 -37 -720 -20
-663 59 -1265 313 -1770 747 -503 432 -851 1008 -1004 1664 -54 230 -76 436
-76 714 0 311 36 565 121 861 204 705 655 1316 1276 1729 308 204 589 329 948
421 154 39 244 56 460 84 39 5 196 8 350 6 226 -2 306 -7 415 -24z"/>
<path d="M3835 7029 c-1069 -58 -2027 -673 -2523 -1619 -348 -662 -438 -1429
-253 -2160 297 -1180 1293 -2077 2501 -2254 509 -75 1068 -11 1540 176 668
264 1220 747 1561 1367 245 447 369 929 370 1446 1 400 -57 729 -193 1090
-198 528 -565 1015 -1025 1357 -573 427 -1267 636 -1978 597z m445 -74 c301
-30 563 -94 820 -199 395 -162 703 -367 1000 -665 335 -337 567 -712 715
-1156 214 -645 202 -1337 -35 -1970 -155 -414 -368 -744 -685 -1060 -478 -479
-1043 -756 -1735 -851 -176 -24 -559 -24 -730 0 -890 127 -1621 581 -2107
1311 -451 677 -602 1540 -408 2331 198 808 707 1480 1432 1893 515 292 1143
425 1733 366z"/>
<path d="M3851 6225 c-213 -60 -364 -208 -427 -421 -28 -93 -24 -238 10 -341
83 -255 334 -427 600 -410 43 3 82 9 86 14 6 6 -31 121 -45 141 -1 1 -19 -14
-40 -35 l-38 -38 -38 43 c-21 24 -45 67 -55 95 -9 29 -19 58 -22 65 -3 9 14
12 67 12 l70 0 -18 43 c-18 42 -18 42 -77 47 -56 5 -59 7 -65 35 -9 41 -11
271 -3 329 l7 46 137 0 137 0 7 -46 c3 -26 6 -62 6 -80 l0 -33 -102 -3 -103
-3 145 -42 c139 -41 152 -43 279 -43 l133 0 -7 -38 c-6 -38 -6 -39 35 -51 23
-7 44 -10 46 -8 12 12 25 139 19 192 -25 239 -178 438 -396 515 -84 29 -268
37 -348 15z m192 -105 c24 -28 61 -112 69 -155 3 -19 -3 -20 -112 -20 l-115 0
3 25 c5 36 50 131 74 157 29 31 51 29 81 -7z m-209 -17 c-6 -16 -40 -116 -50
-150 -4 -15 -169 -19 -178 -4 -9 14 107 116 165 145 62 31 74 32 63 9z m395
-8 c50 -25 171 -129 171 -146 0 -6 -40 -9 -91 -7 l-91 3 -23 70 c-12 39 -26
78 -30 88 -10 24 6 22 64 -8z m-466 -292 c-2 -27 -6 -63 -9 -80 l-5 -33 -120
0 c-135 0 -137 1 -119 70 26 97 15 90 144 90 l114 0 -5 -47z m720 -21 c10 -34
16 -69 13 -77 -4 -12 -29 -15 -125 -15 l-120 0 -5 33 c-3 17 -7 54 -9 80 l-5
48 116 -3 116 -3 19 -63z m-729 -199 c3 -10 6 -45 7 -78 l3 -60 -111 -3 -110
-3 -11 28 c-14 35 -32 104 -32 121 0 9 32 12 124 12 110 0 125 -2 130 -17z
m57 -323 c15 -46 27 -86 25 -87 -5 -5 -102 50 -142 81 -23 17 -54 46 -69 64
l-27 33 92 -3 92 -3 29 -85z"/>
<path d="M4060 5536 c0 -11 182 -461 189 -469 5 -5 23 14 40 42 53 82 51 82
135 7 l74 -66 46 51 c25 28 46 54 46 58 0 3 -34 35 -75 69 -41 34 -75 66 -75
71 0 4 23 27 51 51 27 23 48 44 46 46 -2 3 -103 34 -223 69 -120 36 -227 68
-236 71 -10 3 -18 3 -18 0z"/>
<path d="M5395 4441 c-89 -23 -135 -75 -135 -152 0 -82 58 -139 180 -175 62
-19 110 -61 110 -96 0 -40 -41 -70 -95 -70 -55 0 -93 23 -108 63 -10 26 -16
29 -59 29 -42 0 -48 -3 -48 -20 0 -47 45 -102 110 -136 51 -26 163 -25 215 2
111 58 115 198 7 271 -18 12 -62 31 -97 43 -81 27 -115 53 -115 89 0 38 20 61
61 70 53 12 101 -7 118 -46 14 -31 18 -33 64 -33 l50 0 -7 32 c-8 42 -48 92
-88 111 -41 19 -123 29 -163 18z"/>
<path d="M2370 4155 l0 -285 55 0 55 0 2 181 3 180 76 -178 76 -178 51 -3 52
-3 0 285 0 286 -50 0 -50 0 0 -182 c0 -105 -4 -178 -9 -172 -5 5 -42 87 -82
182 l-74 172 -52 0 -53 0 0 -285z"/>
<path d="M3340 4155 l0 -285 190 0 190 0 0 40 0 39 -137 3 -138 3 -3 83 -3 82
121 0 120 0 0 40 0 39 -117 3 -118 3 0 75 0 75 138 3 137 3 0 39 0 40 -190 0
-190 0 0 -285z"/>
<path d="M4300 4154 l0 -285 53 3 52 3 0 100 0 100 75 6 c112 10 162 36 196
101 18 34 18 109 0 151 -32 78 -107 107 -276 107 l-100 0 0 -286z m256 175
c32 -30 40 -78 20 -117 -18 -35 -72 -55 -134 -50 l-37 3 -1 90 c0 50 2 94 4
99 3 5 32 6 64 3 43 -4 67 -12 84 -28z"/>
<path d="M3002 3988 c-46 -23 -41 -98 8 -118 24 -10 36 -10 60 0 51 21 54 96
5 118 -31 14 -43 14 -73 0z"/>
<path d="M3962 3988 c-46 -23 -41 -98 8 -118 24 -10 36 -10 60 0 51 21 54 96
5 118 -31 14 -43 14 -73 0z"/>
<path d="M4922 3988 c-46 -23 -41 -98 8 -118 24 -10 36 -10 60 0 51 21 54 96
5 118 -31 14 -43 14 -73 0z"/>
<path d="M2000 2760 l0 -40 2000 0 2000 0 0 40 0 40 -2000 0 -2000 0 0 -40z"/>
</g>
</svg>
